<?xml version="1.0" encoding="UTF-8"?>
<svg id="Layer_1" data-name="Layer 1" xmlns="http://www.w3.org/2000/svg" viewBox="0 0 126 111.97">
  <defs>
    <style>
      .cls-1 {
        fill: #48adff;
        stroke: #231f20;
        stroke-miterlimit: 10;
        stroke-width: 3px;
      }
    </style>
  </defs>
  <path class="cls-1" d="m25.96,1.5h74.08c6.69,0,12.78,2.76,17.21,7.2,4.47,4.49,7.25,10.69,7.25,17.51v67.59c0,6.82-2.85,5-7.32,9.48s-10.52,7.2-17.21,7.2H25.9c-6.69,0-12.78-2.76-17.21-7.2-4.48-4.48-7.19-2.65-7.19-9.47V26.21c0-6.83,2.77-13.04,7.25-17.51C13.18,4.26,19.27,1.5,25.96,1.5h0Zm47.78,47.35h-28.34c-.85,0-1.62.34-2.17.9-.56.56-.9,1.33-.9,2.17s.34,1.62.9,2.17c.56.56,1.32.9,2.17.9h28.33l-9.53,10.92c-.55.63-.8,1.43-.76,2.21.05.79.39,1.55,1.02,2.12.63.56,1.43.81,2.21.77.78-.05,1.54-.39,2.1-1.02l14-16.04c.52-.59.77-1.33.77-2.06-.01-.73-.28-1.46-.8-2.02l-14-16.03c-.56-.61-1.31-.95-2.08-1-.78-.05-1.57.21-2.2.77l-.02.02c-.62.56-.95,1.32-1,2.09h0c-.04.79.21,1.59.77,2.22l9.53,10.91h0ZM6.43,84.75c.85,3.45,2.55,6.55,4.83,9.01,3.36,3.62,7.99,5.87,13.1,5.87h77.17c.21,0,.41,0,.62-.01l1.25-.09c4.36-.47,8.29-2.6,11.23-5.77,2.28-2.46,3.97-5.55,4.83-9V26.52c0-5.28-2.17-10.09-5.67-13.58-3.54-3.54-8.44-5.74-13.84-5.74H25.94c-5.4,0-10.3,2.2-13.84,5.74s-5.66,8.3-5.66,13.58v58.23h-.01Z"/>
</svg>