<?xml version="1.0" encoding="utf-8"?>
<!-- Generator: Adobe Illustrator 27.9.0, SVG Export Plug-In . SVG Version: 6.00 Build 0)  -->
<svg version="1.1" id="Layer_1" xmlns="http://www.w3.org/2000/svg" xmlns:xlink="http://www.w3.org/1999/xlink" x="0px" y="0px"
	 viewBox="0 0 122.9 116.6" style="enable-background:new 0 0 122.9 116.6;" xml:space="preserve">
<g>
	<path d="M24.5-0.4h74.1c6.7,0,12.8,2.8,17.2,7.2c4.5,4.5,7.2,10.7,7.2,17.5v67.6c0,6.8-2.8,13-7.3,17.5c-4.4,4.4-10.5,7.2-17.2,7.2
		H24.5c-6.7,0-12.8-2.8-17.2-7.2C2.8,104.9,0,98.7,0,91.9V24.3c0-6.8,2.8-13,7.2-17.5C11.7,2.4,17.8-0.4,24.5-0.4L24.5-0.4z
		 M72.2,47H43.9c-0.8,0-1.6,0.3-2.2,0.9c-0.6,0.6-0.9,1.3-0.9,2.2c0,0.8,0.3,1.6,0.9,2.2c0.6,0.6,1.3,0.9,2.2,0.9h28.3L62.7,64
		c-0.5,0.6-0.8,1.4-0.8,2.2c0,0.8,0.4,1.6,1,2.1c0.6,0.6,1.4,0.8,2.2,0.8c0.8-0.1,1.5-0.4,2.1-1l14-16c0.5-0.6,0.8-1.3,0.8-2.1
		c0-0.7-0.3-1.5-0.8-2l-14-16c-0.6-0.6-1.3-1-2.1-1c-0.8,0-1.6,0.2-2.2,0.8l0,0c-0.6,0.6-1,1.3-1,2.1v0c0,0.8,0.2,1.6,0.8,2.2
		L72.2,47L72.2,47z M4.9,82.8c0.8,3.4,2.5,6.6,4.8,9c3.4,3.6,8,5.9,13.1,5.9H100c0.2,0,0.4,0,0.6,0l1.2-0.1
		c4.4-0.5,8.3-2.6,11.2-5.8c2.3-2.5,4-5.6,4.8-9V24.6c0-5.3-2.2-10.1-5.7-13.6c-3.5-3.5-8.4-5.7-13.8-5.7h-74
		C19,5.3,14.1,7.5,10.6,11c-3.5,3.5-5.7,8.3-5.7,13.6L4.9,82.8L4.9,82.8z"/>
</g>
</svg>
