<?xml version="1.0" encoding="utf-8"?>
<!-- Generator: Adobe Illustrator 27.9.0, SVG Export Plug-In . SVG Version: 6.00 Build 0)  -->
<svg version="1.1" id="Layer_1" xmlns="http://www.w3.org/2000/svg" xmlns:xlink="http://www.w3.org/1999/xlink" x="0px" y="0px"
	 viewBox="0 0 24 24" style="enable-background:new 0 0 24 24;" xml:space="preserve">
<style type="text/css">
	.st0{stroke:#F2F2F2;stroke-width:0.5;stroke-miterlimit:10;}
</style>
<path class="st0" d="M12.3,4.7c-0.1-0.1-0.4-0.1-0.5,0L3.1,13C3,13.1,3,13.2,3,13.3L3,21c0,0.8,0.7,1.5,1.5,1.5H9
	c0.4,0,0.8-0.3,0.8-0.8v-6.4c0-0.2,0.2-0.4,0.4-0.4h3.8c0.2,0,0.4,0.2,0.4,0.4v6.4c0,0.4,0.3,0.8,0.8,0.8h4.5c0.8,0,1.5-0.7,1.5-1.5
	v-7.7c0-0.1,0-0.2-0.1-0.3L12.3,4.7z"/>
<path class="st0" d="M23,11.4l-3.5-3.4V3c0-0.4-0.3-0.8-0.8-0.8h-2.2c-0.4,0-0.8,0.3-0.8,0.8v1.5L13,1.9c-0.3-0.3-0.6-0.4-1-0.4
	c-0.4,0-0.8,0.1-1,0.4L1,11.4c-0.3,0.3-0.3,0.7-0.1,1c0.3,0.3,0.7,0.3,1.1,0.1c0,0,0,0,0,0l9.7-9.3c0.1-0.1,0.4-0.1,0.5,0l9.7,9.3
	c0.3,0.3,0.8,0.3,1.1,0C23.3,12.2,23.3,11.7,23,11.4z"/>
</svg>
